<svg width="17" height="23" viewBox="0 0 17 23" fill="none" xmlns="http://www.w3.org/2000/svg"><path d="M1.643 4.590 L 1.643 8.670 1.077 8.670 L 0.510 8.670 0.510 10.342 L 0.510 12.013 1.077 12.013 L 1.643 12.013 1.643 12.679 L 1.643 13.345 1.077 13.345 L 0.510 13.345 0.510 15.002 L 0.510 16.660 1.077 16.660 L 1.643 16.660 1.643 19.578 L 1.643 22.497 3.301 22.497 L 4.958 22.497 4.958 19.578 L 4.958 16.660 8.429 16.660 L 11.900 16.660 11.900 15.002 L 11.900 13.345 8.429 13.345 L 4.958 13.345 4.958 12.679 L 4.958 12.013 7.969 12.013 C 10.962 12.013,11.344 12.003,11.829 11.913 C 14.254 11.461,16.089 9.532,16.444 7.064 C 16.497 6.698,16.505 5.915,16.460 5.553 C 16.129 2.885,14.058 0.828,11.412 0.540 C 11.230 0.520,9.535 0.510,6.390 0.510 L 1.643 0.510 1.643 4.590 M11.489 3.934 C 12.195 4.169,12.740 4.675,13.007 5.342 C 13.129 5.646,13.174 5.887,13.175 6.242 C 13.176 6.912,12.960 7.461,12.513 7.928 C 12.206 8.249,11.896 8.439,11.455 8.578 L 11.206 8.656 8.082 8.664 L 4.958 8.671 4.958 6.262 L 4.958 3.852 8.125 3.860 L 11.291 3.867 11.489 3.934 " stroke="none" fill-rule="evenodd"></path></svg>